<?xml version="1.0" encoding="UTF-8"?>
<svg id="Layer_1" xmlns="http://www.w3.org/2000/svg" viewBox="0 0 1920 1920">
  <defs>
    <style>
      .cls-1 {
        fill: #fff;
      }
    </style>
  </defs>
  <path class="cls-1" d="M1637.03,1297.74c3.45-3.73,43.85-85.73,56.91-108.62,1.33-3.13.25-6.38-2.85-7.83-3.3-1.22-581.67-212.9-584.34-213.86-4.64-1.89-4.79-8.2-.43-10.4,125.07-59.11,586.13-274.09,586.13-275.05,2.14-1.73,2.58-5.02,1.16-7.33-30.19-46.84-88.36-137.03-121.92-189.08-15.64-24.26-26.48-41.07-26.94-41.79-.62-.79-1.43-1.6-2.41-2.03-1.71-.92-4.38-.48-5.79.61-2.18,1.75-486.43,391.18-488.35,392.73-.04.03-.16.11-.39.25-3.86,2.62-9.78-.85-9.62-5.26.14-2.71,39.12-620.43,39.3-623.52,0-.14-.01-.55-.12-1.14-.15-.91-.55-1.86-1.14-2.59-1.06-1.39-2.91-2.15-4.61-2.16-61.17,2.63-198.63,7.43-259.76,9.98-12.41.48-19.97.77-20.44.78-2.67.28-5.23,2.33-5.35,5.18-.25,3.77,58.47,331.91,89.76,512.17,11.67,66.43,19.73,112.25,19.89,113.2.27,2.04-.53,4.3-2.31,5.52-1.72,1.28-4.15,1.34-6.03.33-3.91-2.41-492.62-345.46-497.08-347.87-2.54-1.1-5.79.12-7.1,2.57-13.33,25.59-47.29,90.17-66.95,127.79-23.87,45.48-42.91,81.96-58.61,111.88-1.07,2.42-.6,5.65,1.78,7.18,3.41,2.39,304.52,112.58,469.43,174.2,60.66,22.48,101.96,37.76,103.14,38.22,2.17.94,3.71,3.3,3.46,5.7-.17,2.13-1.54,3.76-3.23,4.65-111.51,50.55-585.82,266.39-579.28,263.31-.01,0-.05.02-.2.11-.35.19-1.59,1.04-2.17,2.02-1.16,1.7-1.09,4.05-.18,5.84,13.71,24.56,41.88,71.67,60.28,104.07,6.7,11.57,11.27,19.45,11.62,20.06,2.69,4.4,7.52,7.34,12.49,7.19,4.51.07,8.9-2.29,11.7-5.87,324.51-376.5,905.83-404.11,1264.63-65.18,8.49,6.16,20.81,3.36,25.87-5.9l.05-.09ZM884.43,1395.79c-4.3,54.97-18.09,232.5-18.39,236.29-3.81,47.95,34.95,88.92,83.06,87.71.66-.02,1.02-.03,1.09-.03,3.08-.26,102.67-3.63,133.65-4.91,39.98-2.29,69.39-39.01,62.54-78.77-1.69-8.75-37.25-191.64-48.22-247.77-.1-.41-.65-1.8-1.27-2.42-.85-.98-2.05-1.62-3.36-1.86-68.14-10.07-137.89-7.88-205.29,7.1-2.03.66-3.45,2.51-3.78,4.57l-.02.09Z"/>
  <path class="cls-1" d="M884.45,1391.9c-101.46,22.41-200.96,76.6-276.13,152.74-53.35,52.91-91.39,113.08-121.04,178.3-15.27,23.95-49.31,28.7-70.64,8.66-.21-.19-.4-.38-.56-.53-.37-.35-.52-.5-.54-.52-2.77-2.96-132.33-132.18-172.41-172.42-8.93-9.11-10.76-23.4-4.5-34.37,23.63-42.34,49.93-84.55,81.79-122.63,7.15-5.59,17.89-4.2,23.3,3.49.13.27.85,1.2.85,1.3,1,1.72,32.05,55.34,41.13,71.01,1.48,2.56,2.38,4.11,2.46,4.25-.88.76,472.26-363.73,510.26-392.97,1.58-1.2,2.36-1.86,2.44-1.85.04.02.14.07.39.2,1.14.6,5.73,3,6.66,3.49.09.05.15.08.2.11-.03,2.37-22.94,299.54-23.55,301.73l-.09.02Z"/>
  <path class="cls-1" d="M1749.6,1477.82c-37.72,37.37-185.08,185.36-184.81,184.82-10.36,10.4-24.98,14.44-38.25,11.94-11.94-2.01-23.39-9.9-29.57-20.87-82.44-140.45-235.13-244.08-394.71-268.33-2.61-.21-5.1-2.01-5.6-4.66-.07-.37-1.45-7.44-3.74-19.2-12.69-65.23-53.31-273.91-53.77-276.28-.01-.09-.11-.82-.02-1.67.04-.37.13-.75.23-1.09.05-.17.12-.34.18-.5.04-.11.22-.45.15-.32,1.33-2.71,4.74-3.8,7.42-2.51,2.96,1.6,509.93,349.86,513.5,351.98,2.68,1.5,6.27.4,7.71-2.32,12.45-23.37,52.05-100.04,55.04-104.67,1.89-2.29,5.41-2.59,7.67-.77,1.71,1.47,3.22,3.18,4.84,4.76,21.05,21.33,41.16,43.89,59.88,67.17,19.75,24.71,38.27,50.02,54.82,76.36.95,2.02.5,4.44-.92,6.09l-.06.07Z"/>
</svg>